# xmcd CD database file
#
# Track frame offsets:
#	150
#	12907
#	25760
#	39657
#	51645
#	65392
#	77767
#	91015
#	103337
#	115925
#	129847
#	143940
#	155797
#	169180
#	182762
#	194880
#	207387
#	220215
#	234109
#	249012
#	258784
#
# Disc length: 3581 seconds
#
# Revision: 1
# Processed by: cddbd v1.4PL0 Copyright (c) Steve Scherf et al.
# Submitted via: CDex 1.51
#
DISCID=260dfb15
DTITLE=Pioneers, The - Songs of the Pioneers, The.
DYEAR=2002
DGENRE=Country
TTITLE0=Way Out There - Bob Nolan - 1934
TTITLE1=Tumbling Tumbleweeds - Bob Nolan - 1934
TTITLE2=There's a Roundup in the Sky - Bob Nolan - 1935
TTITLE3=Empty Saddles - Billy Hill, J. Keirn Brennan - 1936
TTITLE4=Blue Prairie - Jim Spencer, Bob Nolan - 1936
TTITLE5=One More Ride - Bob Nolan - 1936
TTITLE6=So Long to the Red River Valley - Glenn Spencer - 1941
TTITLE7=Cool Water - Bob Nolan - 1941
TTITLE8=I'm an Old Cowhand (From the Rio Grande) - Johnny Mercer - 1936
TTITLE9=The Hills of Old Wyomin' - Leo Robin, Ralph Rainger - 1936
TTITLE10=Blue Bonnet Girl - Glenn Spencer - 1936
TTITLE11=Ride, Ranger, Ride - Jim Spencer - 1936
TTITLE12=Echoes from the Hills - Bob Nolan - 1935
TTITLE13=I Follow the Stream - Bob Nolan - 1935
TTITLE14=My Saddle Pals and I - Roy Rogers - 1937
TTITLE15=Song of the Bandit - Bob Nolan - 1937
TTITLE16=I Wonder if She Waits fro Me Tonight - Bob Nolan - 1937
TTITLE17=Chant of the Wanderer - Bob Nolan - 1946
TTITLE18=Riders in the Sky - Stan Jones - 1949
TTITLE19=The Lillies Grow High - Stan Jones - 1954
TTITLE20=The River of No Return - Lionel Newman, Ken Darly - 1954
EXTD=YEAR: 2002
EXTT0=
EXTT1=
EXTT2=
EXTT3=
EXTT4=
EXTT5=
EXTT6=
EXTT7=
EXTT8=
EXTT9=
EXTT10=
EXTT11=
EXTT12=
EXTT13=
EXTT14=
EXTT15=
EXTT16=
EXTT17=
EXTT18=
EXTT19=
EXTT20=
PLAYORDER=
